<?xml version="1.0" encoding="utf-8"?>
<!-- Generator: Adobe Illustrator 25.2.3, SVG Export Plug-In . SVG Version: 6.00 Build 0)  -->
<svg version="1.1" id="Layer_1" xmlns="http://www.w3.org/2000/svg" xmlns:xlink="http://www.w3.org/1999/xlink" x="0px" y="0px"
	 viewBox="0 0 720 864" style="enable-background:new 0 0 720 864;" xml:space="preserve">
<style type="text/css">
	.st0{clip-path:url(#SVGID_2_);fill:#FFFFFF;}
	
		.st1{clip-path:url(#SVGID_2_);fill:none;stroke:#FFFFFF;stroke-width:1.55;stroke-linecap:round;stroke-linejoin:round;stroke-miterlimit:10;}
	.st2{clip-path:url(#SVGID_4_);fill:#FFFFFF;}
	.st3{clip-path:url(#SVGID_4_);fill:none;stroke:#000000;stroke-width:1.07;stroke-linecap:square;stroke-miterlimit:10;}
	
		.st4{clip-path:url(#SVGID_4_);fill:none;stroke:#65ADC2;stroke-width:1.07;stroke-linecap:round;stroke-linejoin:round;stroke-miterlimit:10;}
	.st5{fill:none;stroke:#000000;stroke-width:1.55;stroke-linejoin:round;stroke-miterlimit:10;}
	.st6{fill:#4D4D4D;}
	.st7{font-family:'Helvetica';}
	.st8{font-size:13px;}
	.st9{fill:none;stroke:#333333;stroke-width:1.55;stroke-linejoin:round;stroke-miterlimit:10;}
	.st10{font-size:16px;}
	.st11{font-size:19px;}
	.st12{clip-path:url(#SVGID_6_);fill:#FFFFFF;}
	
		.st13{clip-path:url(#SVGID_6_);fill:none;stroke:#FFFFFF;stroke-width:1.55;stroke-linecap:round;stroke-linejoin:round;stroke-miterlimit:10;}
	.st14{clip-path:url(#SVGID_8_);fill:#FFFFFF;}
	.st15{clip-path:url(#SVGID_8_);fill:none;stroke:#000000;stroke-width:1.07;stroke-linecap:square;stroke-miterlimit:10;}
	
		.st16{clip-path:url(#SVGID_8_);fill:none;stroke:#65ADC2;stroke-width:1.07;stroke-linecap:round;stroke-linejoin:round;stroke-miterlimit:10;}
	.st17{clip-path:url(#SVGID_10_);fill:#FFFFFF;}
	
		.st18{clip-path:url(#SVGID_10_);fill:none;stroke:#FFFFFF;stroke-width:1.55;stroke-linecap:round;stroke-linejoin:round;stroke-miterlimit:10;}
	.st19{clip-path:url(#SVGID_12_);fill:#FFFFFF;}
	.st20{clip-path:url(#SVGID_12_);fill:none;stroke:#000000;stroke-width:1.07;stroke-linecap:square;stroke-miterlimit:10;}
	
		.st21{clip-path:url(#SVGID_12_);fill:none;stroke:#65ADC2;stroke-width:1.07;stroke-linecap:round;stroke-linejoin:round;stroke-miterlimit:10;}
	.st22{clip-path:url(#SVGID_14_);fill:#FFFFFF;}
	
		.st23{clip-path:url(#SVGID_14_);fill:none;stroke:#FFFFFF;stroke-width:1.55;stroke-linecap:round;stroke-linejoin:round;stroke-miterlimit:10;}
	.st24{clip-path:url(#SVGID_16_);fill:#FFFFFF;}
	.st25{clip-path:url(#SVGID_16_);fill:none;stroke:#000000;stroke-width:1.07;stroke-linecap:square;stroke-miterlimit:10;}
	
		.st26{clip-path:url(#SVGID_16_);fill:none;stroke:#65ADC2;stroke-width:1.07;stroke-linecap:round;stroke-linejoin:round;stroke-miterlimit:10;}
	.st27{clip-path:url(#SVGID_18_);fill:#FFFFFF;}
	
		.st28{clip-path:url(#SVGID_18_);fill:none;stroke:#FFFFFF;stroke-width:1.55;stroke-linecap:round;stroke-linejoin:round;stroke-miterlimit:10;}
	.st29{clip-path:url(#SVGID_20_);fill:#FFFFFF;}
	.st30{clip-path:url(#SVGID_20_);fill:none;stroke:#000000;stroke-width:1.07;stroke-linecap:square;stroke-miterlimit:10;}
	
		.st31{clip-path:url(#SVGID_20_);fill:none;stroke:#65ADC2;stroke-width:1.07;stroke-linecap:round;stroke-linejoin:round;stroke-miterlimit:10;}
</style>
<g>
	<defs>
		<rect id="SVGID_1_" width="360" height="288"/>
	</defs>
	<clipPath id="SVGID_2_">
		<use xlink:href="#SVGID_1_"  style="overflow:visible;"/>
	</clipPath>
	<rect class="st0" width="360" height="288"/>
	<rect class="st1" width="360" height="288"/>
</g>
<g>
	<defs>
		<rect id="SVGID_3_" x="52" y="33.6" width="300" height="208.4"/>
	</defs>
	<clipPath id="SVGID_4_">
		<use xlink:href="#SVGID_3_"  style="overflow:visible;"/>
	</clipPath>
	<rect x="52" y="33.6" class="st2" width="300" height="208.4"/>
	<rect x="65.7" y="227" class="st2" width="9.1" height="5.6"/>
	<rect x="65.7" y="227" class="st3" width="9.1" height="5.6"/>
	<path class="st2" d="M74.8,232.5h9.1H74.8z"/>
	<path class="st3" d="M74.8,232.5h9.1H74.8z"/>
	<rect x="83.9" y="221.4" class="st2" width="9.1" height="11.1"/>
	<rect x="83.9" y="221.4" class="st3" width="9.1" height="11.1"/>
	<rect x="93" y="227" class="st2" width="9.1" height="5.6"/>
	<rect x="93" y="227" class="st3" width="9.1" height="5.6"/>
	<rect x="102.1" y="221.4" class="st2" width="9.1" height="11.1"/>
	<rect x="102.1" y="221.4" class="st3" width="9.1" height="11.1"/>
	<path class="st2" d="M111.1,232.5h9.1H111.1z"/>
	<path class="st3" d="M111.1,232.5h9.1H111.1z"/>
	<rect x="120.2" y="215.8" class="st2" width="9.1" height="16.7"/>
	<rect x="120.2" y="215.8" class="st3" width="9.1" height="16.7"/>
	<rect x="129.3" y="215.8" class="st2" width="9.1" height="16.7"/>
	<rect x="129.3" y="215.8" class="st3" width="9.1" height="16.7"/>
	<rect x="138.4" y="215.8" class="st2" width="9.1" height="16.7"/>
	<rect x="138.4" y="215.8" class="st3" width="9.1" height="16.7"/>
	<path class="st2" d="M147.5,232.5h9.1H147.5z"/>
	<path class="st3" d="M147.5,232.5h9.1H147.5z"/>
	<rect x="156.6" y="204.7" class="st2" width="9.1" height="27.9"/>
	<rect x="156.6" y="204.7" class="st3" width="9.1" height="27.9"/>
	<rect x="165.7" y="204.7" class="st2" width="9.1" height="27.9"/>
	<rect x="165.7" y="204.7" class="st3" width="9.1" height="27.9"/>
	<rect x="174.8" y="210.2" class="st2" width="9.1" height="22.3"/>
	<rect x="174.8" y="210.2" class="st3" width="9.1" height="22.3"/>
	<rect x="183.9" y="215.8" class="st2" width="9.1" height="16.7"/>
	<rect x="183.9" y="215.8" class="st3" width="9.1" height="16.7"/>
	<rect x="192.9" y="188" class="st2" width="9.1" height="44.6"/>
	<rect x="192.9" y="188" class="st3" width="9.1" height="44.6"/>
	<rect x="202" y="221.4" class="st2" width="9.1" height="11.1"/>
	<rect x="202" y="221.4" class="st3" width="9.1" height="11.1"/>
	<rect x="211.1" y="199.1" class="st2" width="9.1" height="33.4"/>
	<rect x="211.1" y="199.1" class="st3" width="9.1" height="33.4"/>
	<rect x="220.2" y="193.5" class="st2" width="9.1" height="39"/>
	<rect x="220.2" y="193.5" class="st3" width="9.1" height="39"/>
	<rect x="229.3" y="182.4" class="st2" width="9.1" height="50.1"/>
	<rect x="229.3" y="182.4" class="st3" width="9.1" height="50.1"/>
	<rect x="238.4" y="154.5" class="st2" width="9.1" height="78"/>
	<rect x="238.4" y="154.5" class="st3" width="9.1" height="78"/>
	<rect x="247.5" y="176.8" class="st2" width="9.1" height="55.7"/>
	<rect x="247.5" y="176.8" class="st3" width="9.1" height="55.7"/>
	<rect x="256.6" y="182.4" class="st2" width="9.1" height="50.1"/>
	<rect x="256.6" y="182.4" class="st3" width="9.1" height="50.1"/>
	<rect x="265.7" y="160.1" class="st2" width="9.1" height="72.4"/>
	<rect x="265.7" y="160.1" class="st3" width="9.1" height="72.4"/>
	<rect x="274.8" y="43.1" class="st2" width="9.1" height="189.4"/>
	<rect x="274.8" y="43.1" class="st3" width="9.1" height="189.4"/>
	<rect x="283.9" y="188" class="st2" width="9.1" height="44.6"/>
	<rect x="283.9" y="188" class="st3" width="9.1" height="44.6"/>
	<rect x="292.9" y="176.8" class="st2" width="9.1" height="55.7"/>
	<rect x="292.9" y="176.8" class="st3" width="9.1" height="55.7"/>
	<rect x="302" y="188" class="st2" width="9.1" height="44.6"/>
	<rect x="302" y="188" class="st3" width="9.1" height="44.6"/>
	<rect x="311.1" y="188" class="st2" width="9.1" height="44.6"/>
	<rect x="311.1" y="188" class="st3" width="9.1" height="44.6"/>
	<rect x="320.2" y="193.5" class="st2" width="9.1" height="39"/>
	<rect x="320.2" y="193.5" class="st3" width="9.1" height="39"/>
	<rect x="329.3" y="204.7" class="st2" width="9.1" height="27.9"/>
	<rect x="329.3" y="204.7" class="st3" width="9.1" height="27.9"/>
	<polyline class="st4" points="74.1,228.5 74.6,228.4 75.1,228.3 75.6,228.2 76.1,228.1 76.7,228 77.2,227.9 77.7,227.8 78.2,227.7 
		78.7,227.6 79.2,227.5 79.8,227.4 80.3,227.3 80.8,227.2 81.3,227.1 81.8,227 82.3,226.9 82.8,226.8 83.4,226.7 83.9,226.6 
		84.4,226.5 84.9,226.5 85.4,226.4 85.9,226.3 86.5,226.2 87,226.1 87.5,226 88,226 88.5,225.9 89,225.8 89.6,225.8 90.1,225.7 
		90.6,225.6 91.1,225.6 91.6,225.5 92.1,225.5 92.7,225.4 93.2,225.4 93.7,225.3 94.2,225.3 94.7,225.2 95.2,225.2 95.8,225.1 
		96.3,225.1 96.8,225 97.3,225 97.8,225 98.3,224.9 98.8,224.9 99.4,224.8 99.9,224.8 100.4,224.8 100.9,224.7 101.4,224.7 
		101.9,224.7 102.4,224.6 103,224.6 103.5,224.6 104,224.5 104.5,224.5 105,224.5 105.6,224.4 106.1,224.4 106.6,224.3 107.1,224.3 
		107.6,224.2 108.1,224.2 108.6,224.2 109.2,224.1 109.7,224 110.2,224 110.7,223.9 111.2,223.9 111.7,223.8 112.3,223.8 
		112.8,223.7 113.3,223.6 113.8,223.6 114.3,223.5 114.8,223.4 115.3,223.4 115.9,223.3 116.4,223.2 116.9,223.1 117.4,223 
		117.9,223 118.4,222.9 119,222.8 119.5,222.7 120,222.6 120.5,222.5 121,222.4 121.5,222.3 122.1,222.2 122.6,222.1 123.1,222 
		123.6,221.9 124.1,221.8 124.6,221.7 125.2,221.6 125.7,221.5 126.2,221.4 126.7,221.2 127.2,221.1 127.7,221 128.2,220.9 
		128.8,220.8 129.3,220.7 129.8,220.6 130.3,220.5 130.8,220.3 131.3,220.2 131.9,220.1 132.4,220 132.9,219.9 133.4,219.7 
		133.9,219.6 134.4,219.5 134.9,219.4 135.5,219.2 136,219.1 136.5,219 137,218.9 137.5,218.8 138.1,218.6 138.6,218.5 139.1,218.4 
		139.6,218.3 140.1,218.1 140.6,218 141.1,217.9 141.7,217.8 142.2,217.6 142.7,217.5 143.2,217.4 143.7,217.2 144.2,217.1 
		144.8,217 145.3,216.9 145.8,216.7 146.3,216.6 146.8,216.5 147.3,216.3 147.9,216.2 148.4,216.1 148.9,216 149.4,215.8 
		149.9,215.7 150.4,215.6 150.9,215.4 151.5,215.3 152,215.2 152.5,215 153,214.9 153.5,214.8 154,214.7 154.6,214.5 155.1,214.4 
		155.6,214.3 156.1,214.1 156.6,214 157.1,213.9 157.6,213.8 158.2,213.6 158.7,213.5 159.2,213.4 159.7,213.3 160.2,213.1 
		160.8,213 161.3,212.9 161.8,212.8 162.3,212.7 162.8,212.5 163.3,212.4 163.8,212.3 164.4,212.2 164.9,212.1 165.4,211.9 
		165.9,211.8 166.4,211.7 166.9,211.6 167.5,211.5 168,211.4 168.5,211.2 169,211.1 169.5,211 170,210.9 170.6,210.8 171.1,210.7 
		171.6,210.6 172.1,210.5 172.6,210.3 173.1,210.2 173.6,210.1 174.2,210 174.7,209.9 175.2,209.8 175.7,209.7 176.2,209.5 
		176.7,209.4 177.3,209.3 177.8,209.2 178.3,209.1 178.8,209 179.3,208.8 179.8,208.7 180.4,208.6 180.9,208.5 181.4,208.4 
		181.9,208.3 182.4,208.1 182.9,208 183.4,207.9 184,207.8 184.5,207.7 185,207.5 185.5,207.4 186,207.3 186.5,207.2 187.1,207 
		187.6,206.9 188.1,206.8 188.6,206.6 189.1,206.5 189.6,206.4 190.1,206.2 190.7,206.1 191.2,206 191.7,205.9 192.2,205.7 
		192.7,205.6 193.2,205.5 193.8,205.3 194.3,205.2 194.8,205 195.3,204.9 195.8,204.8 196.3,204.6 196.9,204.5 197.4,204.3 
		197.9,204.2 198.4,204 198.9,203.8 199.4,203.7 200,203.5 200.5,203.4 201,203.2 201.5,203 202,202.9 202.5,202.7 203.1,202.5 
		203.6,202.3 204.1,202.1 204.6,201.9 205.1,201.8 205.6,201.5 206.1,201.3 206.7,201.1 207.2,200.9 207.7,200.7 208.2,200.5 
		208.7,200.2 209.2,200 209.8,199.8 210.3,199.5 210.8,199.3 211.3,199 211.8,198.7 212.3,198.5 212.9,198.2 213.4,197.9 
		213.9,197.6 214.4,197.3 214.9,197 215.4,196.7 215.9,196.4 216.5,196.1 217,195.7 217.5,195.4 218,195 218.5,194.7 219,194.3 
		219.6,194 220.1,193.6 220.6,193.2 221.1,192.8 221.6,192.5 222.1,192.1 222.6,191.7 223.2,191.3 223.7,190.9 224.2,190.5 
		224.7,190 225.2,189.6 225.8,189.2 226.3,188.8 226.8,188.4 227.3,187.9 227.8,187.5 228.3,187.1 228.9,186.7 229.4,186.2 
		229.9,185.8 230.4,185.3 230.9,184.9 231.4,184.5 231.9,184 232.5,183.6 233,183.2 233.5,182.7 234,182.3 234.5,181.9 235,181.5 
		235.6,181 236.1,180.6 236.6,180.2 237.1,179.8 237.6,179.4 238.1,179 238.6,178.5 239.2,178.1 239.7,177.7 240.2,177.3 
		240.7,176.9 241.2,176.5 241.7,176.1 242.3,175.7 242.8,175.3 243.3,174.9 243.8,174.5 244.3,174.1 244.8,173.7 245.4,173.3 
		245.9,172.9 246.4,172.5 246.9,172.1 247.4,171.7 247.9,171.3 248.4,170.9 249,170.4 249.5,170 250,169.5 250.5,169.1 251,168.6 
		251.5,168.2 252.1,167.7 252.6,167.2 253.1,166.7 253.6,166.2 254.1,165.7 254.6,165.2 255.2,164.7 255.7,164.1 256.2,163.6 
		256.7,163 257.2,162.5 257.7,161.9 258.2,161.3 258.8,160.7 259.3,160.1 259.8,159.5 260.3,158.9 260.8,158.3 261.4,157.7 
		261.9,157.1 262.4,156.5 262.9,155.8 263.4,155.2 263.9,154.6 264.4,154 265,153.4 265.5,152.8 266,152.2 266.5,151.7 267,151.1 
		267.5,150.5 268,150 268.6,149.5 269.1,149 269.6,148.5 270.1,148.1 270.6,147.7 271.1,147.2 271.7,146.9 272.2,146.5 272.7,146.2 
		273.2,146 273.7,145.7 274.2,145.5 274.8,145.3 275.3,145.2 275.8,145 276.3,145 276.8,145 277.3,145 277.9,145 278.4,145.1 
		278.9,145.2 279.4,145.4 279.9,145.6 280.4,145.8 281,146.1 281.5,146.4 282,146.8 282.5,147.1 283,147.6 283.5,148 284,148.5 
		284.6,149 285.1,149.6 285.6,150.2 286.1,150.8 286.6,151.4 287.1,152.1 287.7,152.8 288.2,153.5 288.7,154.2 289.2,154.9 
		289.7,155.7 290.2,156.5 290.8,157.2 291.3,158 291.8,158.8 292.3,159.7 292.8,160.5 293.3,161.3 293.9,162.1 294.4,163 
		294.9,163.8 295.4,164.6 295.9,165.5 296.4,166.3 296.9,167.1 297.5,167.9 298,168.7 298.5,169.5 299,170.3 299.5,171.1 300,171.9 
		300.5,172.7 301.1,173.5 301.6,174.2 302.1,175 302.6,175.7 303.1,176.4 303.6,177.1 304.2,177.8 304.7,178.5 305.2,179.2 
		305.7,179.9 306.2,180.5 306.7,181.2 307.3,181.8 307.8,182.4 308.3,183.1 308.8,183.7 309.3,184.3 309.8,184.9 310.4,185.5 
		310.9,186 311.4,186.6 311.9,187.2 312.4,187.7 312.9,188.3 313.5,188.8 314,189.4 314.5,189.9 315,190.5 315.5,191 316,191.5 
		316.5,192 317.1,192.6 317.6,193.1 318.1,193.6 318.6,194.2 319.1,194.7 319.6,195.2 320.2,195.7 320.7,196.2 321.2,196.8 
		321.7,197.3 322.2,197.8 322.7,198.3 323.2,198.9 323.8,199.4 324.3,199.9 324.8,200.5 325.3,201 325.8,201.5 326.4,202.1 
		326.9,202.6 327.4,203.2 327.9,203.7 328.4,204.2 328.9,204.8 329.4,205.3 330,205.9 330.5,206.4 331,207 331.5,207.5 332,208.1 
		332.5,208.6 333,209.2 333.6,209.7 334.1,210.2 334.6,210.8 335.1,211.3 335.6,211.9 336.1,212.4 336.7,213 337.2,213.5 337.7,214 
			"/>
</g>
<line class="st5" x1="52" y1="242" x2="52" y2="33.6"/>
<text transform="matrix(1 0 0 1 26.8101 237.1802)" class="st6 st7 st8">0.0</text>
<text transform="matrix(1 0 0 1 26.8101 197.71)" class="st6 st7 st8">0.1</text>
<text transform="matrix(1 0 0 1 26.8101 158.2402)" class="st6 st7 st8">0.2</text>
<text transform="matrix(1 0 0 1 26.8101 118.77)" class="st6 st7 st8">0.3</text>
<text transform="matrix(1 0 0 1 26.8101 79.29)" class="st6 st7 st8">0.4</text>
<text transform="matrix(1 0 0 1 26.8101 39.8198)" class="st6 st7 st8">0.5</text>
<line class="st9" x1="48.1" y1="232.5" x2="52" y2="232.5"/>
<line class="st9" x1="48.1" y1="193" x2="52" y2="193"/>
<line class="st9" x1="48.1" y1="153.6" x2="52" y2="153.6"/>
<line class="st9" x1="48.1" y1="114.1" x2="52" y2="114.1"/>
<line class="st9" x1="48.1" y1="74.6" x2="52" y2="74.6"/>
<line class="st9" x1="48.1" y1="35.2" x2="52" y2="35.2"/>
<line class="st5" x1="52" y1="242" x2="352" y2="242"/>
<line class="st9" x1="59.9" y1="246" x2="59.9" y2="242"/>
<line class="st9" x1="133.1" y1="246" x2="133.1" y2="242"/>
<line class="st9" x1="206.2" y1="246" x2="206.2" y2="242"/>
<line class="st9" x1="279.3" y1="246" x2="279.3" y2="242"/>
<text transform="matrix(1 0 0 1 52.5 258.5)" class="st6 st7 st8">−9</text>
<text transform="matrix(1 0 0 1 125.6401 258.5)" class="st6 st7 st8">−6</text>
<text transform="matrix(1 0 0 1 198.77 258.5)" class="st6 st7 st8">−3</text>
<text transform="matrix(1 0 0 1 275.6899 258.5)" class="st6 st7 st8">0</text>
<text transform="matrix(1 0 0 1 64.8799 276.6602)" class="st7 st10">Change in CR score (geomean − max)</text>
<text transform="matrix(1 0 0 1 162.3999 21.6099)"><tspan x="0" y="0" class="st7 st11">EM_C</tspan><tspan x="52.8" y="0" class="st7 st11">O</tspan><tspan x="66.6" y="0" class="st7 st11">V</tspan></text>
<g>
	<defs>
		<rect id="SVGID_5_" x="360" width="360" height="288"/>
	</defs>
	<clipPath id="SVGID_6_">
		<use xlink:href="#SVGID_5_"  style="overflow:visible;"/>
	</clipPath>
	<rect x="360" class="st12" width="360" height="288"/>
	<rect x="360" class="st13" width="360" height="288"/>
</g>
<g>
	<defs>
		<rect id="SVGID_7_" x="412" y="33.6" width="300" height="208.4"/>
	</defs>
	<clipPath id="SVGID_8_">
		<use xlink:href="#SVGID_7_"  style="overflow:visible;"/>
	</clipPath>
	<rect x="412" y="33.6" class="st14" width="300" height="208.4"/>
	<rect x="425.7" y="222.6" class="st14" width="9.1" height="10"/>
	<rect x="425.7" y="222.6" class="st15" width="9.1" height="10"/>
	<path class="st14" d="M434.8,232.5h9.1H434.8z"/>
	<path class="st15" d="M434.8,232.5h9.1H434.8z"/>
	<path class="st14" d="M443.9,232.5h9.1H443.9z"/>
	<path class="st15" d="M443.9,232.5h9.1H443.9z"/>
	<rect x="453" y="212.6" class="st14" width="9.1" height="19.9"/>
	<rect x="453" y="212.6" class="st15" width="9.1" height="19.9"/>
	<path class="st14" d="M462,232.5h9.1H462z"/>
	<path class="st15" d="M462,232.5h9.1H462z"/>
	<rect x="471.1" y="102.9" class="st14" width="9.1" height="129.6"/>
	<rect x="471.1" y="102.9" class="st15" width="9.1" height="129.6"/>
	<rect x="480.2" y="212.6" class="st14" width="9.1" height="19.9"/>
	<rect x="480.2" y="212.6" class="st15" width="9.1" height="19.9"/>
	<rect x="489.3" y="212.6" class="st14" width="9.1" height="19.9"/>
	<rect x="489.3" y="212.6" class="st15" width="9.1" height="19.9"/>
	<rect x="498.4" y="212.6" class="st14" width="9.1" height="19.9"/>
	<rect x="498.4" y="212.6" class="st15" width="9.1" height="19.9"/>
	<rect x="507.5" y="222.6" class="st14" width="9.1" height="10"/>
	<rect x="507.5" y="222.6" class="st15" width="9.1" height="10"/>
	<rect x="516.6" y="222.6" class="st14" width="9.1" height="10"/>
	<rect x="516.6" y="222.6" class="st15" width="9.1" height="10"/>
	<rect x="525.7" y="202.6" class="st14" width="9.1" height="29.9"/>
	<rect x="525.7" y="202.6" class="st15" width="9.1" height="29.9"/>
	<rect x="534.8" y="212.6" class="st14" width="9.1" height="19.9"/>
	<rect x="534.8" y="212.6" class="st15" width="9.1" height="19.9"/>
	<rect x="543.9" y="172.7" class="st14" width="9.1" height="59.8"/>
	<rect x="543.9" y="172.7" class="st15" width="9.1" height="59.8"/>
	<rect x="553" y="102.9" class="st14" width="9.1" height="129.6"/>
	<rect x="553" y="102.9" class="st15" width="9.1" height="129.6"/>
	<rect x="562" y="142.8" class="st14" width="9.1" height="89.7"/>
	<rect x="562" y="142.8" class="st15" width="9.1" height="89.7"/>
	<rect x="571.1" y="182.7" class="st14" width="9.1" height="49.8"/>
	<rect x="571.1" y="182.7" class="st15" width="9.1" height="49.8"/>
	<rect x="580.2" y="162.7" class="st14" width="9.1" height="69.8"/>
	<rect x="580.2" y="162.7" class="st15" width="9.1" height="69.8"/>
	<rect x="589.3" y="43.1" class="st14" width="9.1" height="189.4"/>
	<rect x="589.3" y="43.1" class="st15" width="9.1" height="189.4"/>
	<rect x="598.4" y="202.6" class="st14" width="9.1" height="29.9"/>
	<rect x="598.4" y="202.6" class="st15" width="9.1" height="29.9"/>
	<rect x="607.5" y="182.7" class="st14" width="9.1" height="49.8"/>
	<rect x="607.5" y="182.7" class="st15" width="9.1" height="49.8"/>
	<rect x="616.6" y="172.7" class="st14" width="9.1" height="59.8"/>
	<rect x="616.6" y="172.7" class="st15" width="9.1" height="59.8"/>
	<rect x="625.7" y="112.9" class="st14" width="9.1" height="119.6"/>
	<rect x="625.7" y="112.9" class="st15" width="9.1" height="119.6"/>
	<rect x="634.8" y="182.7" class="st14" width="9.1" height="49.8"/>
	<rect x="634.8" y="182.7" class="st15" width="9.1" height="49.8"/>
	<rect x="643.8" y="172.7" class="st14" width="9.1" height="59.8"/>
	<rect x="643.8" y="172.7" class="st15" width="9.1" height="59.8"/>
	<rect x="652.9" y="142.8" class="st14" width="9.1" height="89.7"/>
	<rect x="652.9" y="142.8" class="st15" width="9.1" height="89.7"/>
	<rect x="662" y="192.6" class="st14" width="9.1" height="39.9"/>
	<rect x="662" y="192.6" class="st15" width="9.1" height="39.9"/>
	<rect x="671.1" y="142.8" class="st14" width="9.1" height="89.7"/>
	<rect x="671.1" y="142.8" class="st15" width="9.1" height="89.7"/>
	<rect x="680.2" y="212.6" class="st14" width="9.1" height="19.9"/>
	<rect x="680.2" y="212.6" class="st15" width="9.1" height="19.9"/>
	<rect x="689.3" y="222.6" class="st14" width="9.1" height="10"/>
	<rect x="689.3" y="222.6" class="st15" width="9.1" height="10"/>
	<polyline class="st16" points="426.2,228.3 426.7,228.2 427.2,228 427.7,227.9 428.2,227.8 428.8,227.6 429.3,227.5 429.8,227.3 
		430.3,227.1 430.8,227 431.3,226.8 431.8,226.6 432.4,226.4 432.9,226.2 433.4,226 433.9,225.8 434.4,225.6 434.9,225.4 
		435.5,225.2 436,224.9 436.5,224.7 437,224.4 437.5,224.2 438,223.9 438.5,223.6 439.1,223.4 439.6,223.1 440.1,222.8 440.6,222.5 
		441.1,222.2 441.6,221.8 442.2,221.5 442.7,221.2 443.2,220.9 443.7,220.5 444.2,220.2 444.7,219.8 445.2,219.4 445.8,219 
		446.3,218.7 446.8,218.3 447.3,217.9 447.8,217.5 448.4,217.1 448.9,216.7 449.4,216.2 449.9,215.8 450.4,215.4 450.9,215 
		451.5,214.5 452,214.1 452.5,213.6 453,213.2 453.5,212.8 454,212.3 454.5,211.9 455.1,211.4 455.6,211 456.1,210.5 456.6,210.1 
		457.1,209.6 457.6,209.2 458.1,208.7 458.7,208.3 459.2,207.8 459.7,207.4 460.2,207 460.7,206.6 461.2,206.2 461.8,205.7 
		462.3,205.3 462.8,204.9 463.3,204.6 463.8,204.2 464.3,203.8 464.9,203.5 465.4,203.1 465.9,202.8 466.4,202.4 466.9,202.1 
		467.4,201.8 468,201.5 468.5,201.2 469,201 469.5,200.7 470,200.5 470.5,200.3 471,200.1 471.6,199.9 472.1,199.7 472.6,199.5 
		473.1,199.4 473.6,199.2 474.1,199.1 474.7,199 475.2,198.9 475.7,198.9 476.2,198.8 476.7,198.8 477.2,198.7 477.8,198.7 
		478.3,198.7 478.8,198.7 479.3,198.8 479.8,198.8 480.3,198.9 480.9,199 481.4,199 481.9,199.1 482.4,199.2 482.9,199.4 
		483.4,199.5 484,199.6 484.5,199.8 485,200 485.5,200.1 486,200.3 486.5,200.5 487,200.7 487.6,200.9 488.1,201.1 488.6,201.4 
		489.1,201.6 489.6,201.8 490.1,202 490.6,202.3 491.2,202.5 491.7,202.8 492.2,203 492.7,203.3 493.2,203.5 493.8,203.8 494.3,204 
		494.8,204.3 495.3,204.5 495.8,204.8 496.3,205 496.8,205.2 497.4,205.5 497.9,205.7 498.4,205.9 498.9,206.2 499.4,206.4 
		499.9,206.6 500.5,206.8 501,207 501.5,207.1 502,207.3 502.5,207.5 503,207.6 503.5,207.8 504.1,207.9 504.6,208 505.1,208.1 
		505.6,208.2 506.1,208.3 506.6,208.4 507.2,208.4 507.7,208.5 508.2,208.5 508.7,208.5 509.2,208.5 509.7,208.5 510.3,208.5 
		510.8,208.5 511.3,208.4 511.8,208.3 512.3,208.3 512.8,208.2 513.3,208 513.9,207.9 514.4,207.8 514.9,207.6 515.4,207.4 
		515.9,207.2 516.5,207 517,206.8 517.5,206.5 518,206.3 518.5,206 519,205.7 519.5,205.4 520.1,205 520.6,204.7 521.1,204.3 
		521.6,203.9 522.1,203.5 522.6,203.1 523.2,202.7 523.7,202.3 524.2,201.8 524.7,201.3 525.2,200.8 525.7,200.3 526.2,199.8 
		526.8,199.3 527.3,198.8 527.8,198.2 528.3,197.6 528.8,197.1 529.3,196.5 529.9,195.9 530.4,195.2 530.9,194.6 531.4,194 
		531.9,193.3 532.4,192.7 533,192 533.5,191.3 534,190.7 534.5,190 535,189.3 535.5,188.6 536,187.9 536.6,187.2 537.1,186.5 
		537.6,185.8 538.1,185.1 538.6,184.3 539.2,183.6 539.7,182.9 540.2,182.2 540.7,181.5 541.2,180.8 541.7,180 542.2,179.3 
		542.8,178.6 543.3,177.9 543.8,177.2 544.3,176.5 544.8,175.8 545.3,175.1 545.8,174.4 546.4,173.8 546.9,173.1 547.4,172.4 
		547.9,171.8 548.4,171.1 549,170.5 549.5,169.9 550,169.2 550.5,168.6 551,168 551.5,167.4 552,166.8 552.6,166.3 553.1,165.7 
		553.6,165.2 554.1,164.6 554.6,164.1 555.1,163.6 555.7,163.1 556.2,162.6 556.7,162.1 557.2,161.7 557.7,161.2 558.2,160.7 
		558.8,160.3 559.3,159.9 559.8,159.5 560.3,159.1 560.8,158.7 561.3,158.3 561.8,157.9 562.4,157.5 562.9,157.2 563.4,156.8 
		563.9,156.5 564.4,156.2 564.9,155.9 565.5,155.6 566,155.3 566.5,155 567,154.7 567.5,154.4 568,154.2 568.5,153.9 569.1,153.7 
		569.6,153.4 570.1,153.2 570.6,153 571.1,152.7 571.7,152.5 572.2,152.3 572.7,152.1 573.2,151.9 573.7,151.8 574.2,151.6 
		574.7,151.4 575.3,151.2 575.8,151.1 576.3,150.9 576.8,150.8 577.3,150.6 577.8,150.5 578.3,150.4 578.9,150.2 579.4,150.1 
		579.9,150 580.4,149.9 580.9,149.8 581.5,149.8 582,149.7 582.5,149.6 583,149.5 583.5,149.5 584,149.4 584.5,149.4 585.1,149.3 
		585.6,149.3 586.1,149.3 586.6,149.3 587.1,149.3 587.6,149.3 588.2,149.3 588.7,149.3 589.2,149.3 589.7,149.3 590.2,149.4 
		590.7,149.4 591.2,149.5 591.8,149.5 592.3,149.6 592.8,149.7 593.3,149.8 593.8,149.8 594.3,150 594.9,150 595.4,150.2 
		595.9,150.3 596.4,150.4 596.9,150.5 597.4,150.7 598,150.8 598.5,150.9 599,151.1 599.5,151.2 600,151.4 600.5,151.5 601,151.7 
		601.6,151.9 602.1,152 602.6,152.2 603.1,152.4 603.6,152.6 604.2,152.7 604.7,152.9 605.2,153.1 605.7,153.3 606.2,153.5 
		606.7,153.6 607.2,153.8 607.8,154 608.3,154.2 608.8,154.3 609.3,154.5 609.8,154.7 610.3,154.9 610.8,155 611.4,155.2 
		611.9,155.4 612.4,155.5 612.9,155.7 613.4,155.8 614,156 614.5,156.1 615,156.3 615.5,156.4 616,156.5 616.5,156.7 617,156.8 
		617.6,156.9 618.1,157.1 618.6,157.2 619.1,157.3 619.6,157.4 620.1,157.5 620.7,157.6 621.2,157.7 621.7,157.8 622.2,157.9 
		622.7,158 623.2,158.1 623.8,158.2 624.3,158.3 624.8,158.4 625.3,158.5 625.8,158.6 626.3,158.6 626.8,158.7 627.4,158.8 
		627.9,158.9 628.4,159 628.9,159 629.4,159.1 629.9,159.2 630.5,159.3 631,159.4 631.5,159.5 632,159.5 632.5,159.6 633,159.7 
		633.5,159.8 634.1,159.9 634.6,160 635.1,160.1 635.6,160.2 636.1,160.3 636.7,160.4 637.2,160.5 637.7,160.6 638.2,160.7 
		638.7,160.8 639.2,161 639.7,161.1 640.3,161.2 640.8,161.3 641.3,161.5 641.8,161.6 642.3,161.8 642.8,161.9 643.3,162.1 
		643.9,162.2 644.4,162.4 644.9,162.6 645.4,162.7 645.9,162.9 646.5,163.1 647,163.3 647.5,163.5 648,163.7 648.5,163.9 649,164.1 
		649.5,164.3 650.1,164.6 650.6,164.8 651.1,165 651.6,165.3 652.1,165.5 652.6,165.8 653.2,166.1 653.7,166.3 654.2,166.6 
		654.7,166.9 655.2,167.2 655.7,167.5 656.2,167.8 656.8,168.2 657.3,168.5 657.8,168.8 658.3,169.2 658.8,169.5 659.3,169.9 
		659.9,170.3 660.4,170.7 660.9,171 661.4,171.4 661.9,171.8 662.4,172.3 663,172.7 663.5,173.1 664,173.6 664.5,174 665,174.5 
		665.5,175 666,175.5 666.6,176 667.1,176.5 667.6,177 668.1,177.5 668.6,178 669.2,178.6 669.7,179.2 670.2,179.7 670.7,180.3 
		671.2,180.9 671.7,181.5 672.2,182 672.8,182.7 673.3,183.3 673.8,183.9 674.3,184.5 674.8,185.2 675.3,185.8 675.8,186.4 
		676.4,187.1 676.9,187.8 677.4,188.4 677.9,189.1 678.4,189.8 679,190.5 679.5,191.2 680,191.8 680.5,192.5 681,193.2 681.5,193.9 
		682,194.6 682.6,195.3 683.1,196 683.6,196.8 684.1,197.5 684.6,198.2 685.1,198.9 685.7,199.6 686.2,200.3 686.7,201 687.2,201.7 
		687.7,202.4 688.2,203.1 688.8,203.8 689.3,204.5 689.8,205.2 	"/>
</g>
<line class="st5" x1="412" y1="242" x2="412" y2="33.6"/>
<text transform="matrix(1 0 0 1 386.8096 237.1802)" class="st6 st7 st8">0.0</text>
<text transform="matrix(1 0 0 1 386.8096 169.2197)" class="st6 st7 st8">0.2</text>
<text transform="matrix(1 0 0 1 386.8096 101.25)" class="st6 st7 st8">0.4</text>
<line class="st9" x1="408.1" y1="232.5" x2="412" y2="232.5"/>
<line class="st9" x1="408.1" y1="164.5" x2="412" y2="164.5"/>
<line class="st9" x1="408.1" y1="96.6" x2="412" y2="96.6"/>
<line class="st5" x1="412" y1="242" x2="712" y2="242"/>
<line class="st9" x1="433.9" y1="246" x2="433.9" y2="242"/>
<line class="st9" x1="513.8" y1="246" x2="513.8" y2="242"/>
<line class="st9" x1="593.9" y1="246" x2="593.9" y2="242"/>
<line class="st9" x1="673.9" y1="246" x2="673.9" y2="242"/>
<text transform="matrix(1 0 0 1 426.4404 258.5)" class="st6 st7 st8">−4</text>
<text transform="matrix(1 0 0 1 506.4404 258.5)" class="st6 st7 st8">−2</text>
<text transform="matrix(1 0 0 1 590.2402 258.5)" class="st6 st7 st8">0</text>
<text transform="matrix(1 0 0 1 670.25 258.5)" class="st6 st7 st8">2</text>
<text transform="matrix(1 0 0 1 424.8799 276.6602)" class="st7 st10">Change in CR score (geomean − max)</text>
<text transform="matrix(1 0 0 1 530.3701 21.6099)" class="st7 st11">EM_FS</text>
<g>
	<defs>
		<rect id="SVGID_9_" y="288" width="360" height="288"/>
	</defs>
	<clipPath id="SVGID_10_">
		<use xlink:href="#SVGID_9_"  style="overflow:visible;"/>
	</clipPath>
	<rect y="288" class="st17" width="360" height="288"/>
	<rect y="288" class="st18" width="360" height="288"/>
</g>
<g>
	<defs>
		<rect id="SVGID_11_" x="52" y="321.6" width="300" height="208.4"/>
	</defs>
	<clipPath id="SVGID_12_">
		<use xlink:href="#SVGID_11_"  style="overflow:visible;"/>
	</clipPath>
	<rect x="52" y="321.6" class="st19" width="300" height="208.4"/>
	<rect x="65.7" y="496.1" class="st19" width="9.1" height="24.4"/>
	<rect x="65.7" y="496.1" class="st20" width="9.1" height="24.4"/>
	<rect x="74.8" y="514.4" class="st19" width="9.1" height="6.1"/>
	<rect x="74.8" y="514.4" class="st20" width="9.1" height="6.1"/>
	<path class="st19" d="M83.9,520.5H93H83.9z"/>
	<path class="st20" d="M83.9,520.5H93H83.9z"/>
	<rect x="93" y="514.4" class="st19" width="9.1" height="6.1"/>
	<rect x="93" y="514.4" class="st20" width="9.1" height="6.1"/>
	<rect x="102.1" y="502.2" class="st19" width="9.1" height="18.3"/>
	<rect x="102.1" y="502.2" class="st20" width="9.1" height="18.3"/>
	<rect x="111.1" y="477.8" class="st19" width="9.1" height="42.8"/>
	<rect x="111.1" y="477.8" class="st20" width="9.1" height="42.8"/>
	<rect x="120.2" y="502.2" class="st19" width="9.1" height="18.3"/>
	<rect x="120.2" y="502.2" class="st20" width="9.1" height="18.3"/>
	<rect x="129.3" y="465.5" class="st19" width="9.1" height="55"/>
	<rect x="129.3" y="465.5" class="st20" width="9.1" height="55"/>
	<rect x="138.4" y="453.3" class="st19" width="9.1" height="67.2"/>
	<rect x="138.4" y="453.3" class="st20" width="9.1" height="67.2"/>
	<rect x="147.5" y="490" class="st19" width="9.1" height="30.5"/>
	<rect x="147.5" y="490" class="st20" width="9.1" height="30.5"/>
	<rect x="156.6" y="483.9" class="st19" width="9.1" height="36.7"/>
	<rect x="156.6" y="483.9" class="st20" width="9.1" height="36.7"/>
	<rect x="165.7" y="465.5" class="st19" width="9.1" height="55"/>
	<rect x="165.7" y="465.5" class="st20" width="9.1" height="55"/>
	<rect x="174.8" y="471.6" class="st19" width="9.1" height="48.9"/>
	<rect x="174.8" y="471.6" class="st20" width="9.1" height="48.9"/>
	<rect x="183.9" y="459.4" class="st19" width="9.1" height="61.1"/>
	<rect x="183.9" y="459.4" class="st20" width="9.1" height="61.1"/>
	<rect x="192.9" y="508.3" class="st19" width="9.1" height="12.2"/>
	<rect x="192.9" y="508.3" class="st20" width="9.1" height="12.2"/>
	<rect x="202" y="459.4" class="st19" width="9.1" height="61.1"/>
	<rect x="202" y="459.4" class="st20" width="9.1" height="61.1"/>
	<rect x="211.1" y="496.1" class="st19" width="9.1" height="24.4"/>
	<rect x="211.1" y="496.1" class="st20" width="9.1" height="24.4"/>
	<rect x="220.2" y="477.8" class="st19" width="9.1" height="42.8"/>
	<rect x="220.2" y="477.8" class="st20" width="9.1" height="42.8"/>
	<rect x="229.3" y="331.1" class="st19" width="9.1" height="189.4"/>
	<rect x="229.3" y="331.1" class="st20" width="9.1" height="189.4"/>
	<rect x="238.4" y="483.9" class="st19" width="9.1" height="36.7"/>
	<rect x="238.4" y="483.9" class="st20" width="9.1" height="36.7"/>
	<rect x="247.5" y="490" class="st19" width="9.1" height="30.5"/>
	<rect x="247.5" y="490" class="st20" width="9.1" height="30.5"/>
	<rect x="256.6" y="496.1" class="st19" width="9.1" height="24.4"/>
	<rect x="256.6" y="496.1" class="st20" width="9.1" height="24.4"/>
	<rect x="265.7" y="477.8" class="st19" width="9.1" height="42.8"/>
	<rect x="265.7" y="477.8" class="st20" width="9.1" height="42.8"/>
	<rect x="274.8" y="465.5" class="st19" width="9.1" height="55"/>
	<rect x="274.8" y="465.5" class="st20" width="9.1" height="55"/>
	<rect x="283.9" y="496.1" class="st19" width="9.1" height="24.4"/>
	<rect x="283.9" y="496.1" class="st20" width="9.1" height="24.4"/>
	<rect x="292.9" y="502.2" class="st19" width="9.1" height="18.3"/>
	<rect x="292.9" y="502.2" class="st20" width="9.1" height="18.3"/>
	<rect x="302" y="490" class="st19" width="9.1" height="30.5"/>
	<rect x="302" y="490" class="st20" width="9.1" height="30.5"/>
	<rect x="311.1" y="490" class="st19" width="9.1" height="30.5"/>
	<rect x="311.1" y="490" class="st20" width="9.1" height="30.5"/>
	<rect x="320.2" y="490" class="st19" width="9.1" height="30.5"/>
	<rect x="320.2" y="490" class="st20" width="9.1" height="30.5"/>
	<rect x="329.3" y="514.4" class="st19" width="9.1" height="6.1"/>
	<rect x="329.3" y="514.4" class="st20" width="9.1" height="6.1"/>
	<polyline class="st21" points="66.3,513.9 66.8,513.8 67.4,513.8 67.9,513.7 68.4,513.6 68.9,513.5 69.4,513.4 69.9,513.3 
		70.5,513.2 71,513.2 71.5,513.1 72,513 72.5,512.9 73,512.8 73.6,512.7 74.1,512.6 74.6,512.5 75.1,512.4 75.6,512.3 76.1,512.2 
		76.7,512.2 77.2,512 77.7,511.9 78.2,511.8 78.7,511.7 79.2,511.6 79.7,511.5 80.3,511.4 80.8,511.3 81.3,511.1 81.8,511 
		82.3,510.9 82.8,510.8 83.4,510.6 83.9,510.5 84.4,510.3 84.9,510.2 85.4,510 85.9,509.9 86.4,509.7 87,509.5 87.5,509.4 88,509.2 
		88.5,509 89,508.8 89.6,508.6 90.1,508.4 90.6,508.2 91.1,508 91.6,507.8 92.1,507.6 92.6,507.3 93.2,507.1 93.7,506.9 94.2,506.6 
		94.7,506.4 95.2,506.1 95.7,505.8 96.2,505.6 96.8,505.3 97.3,505 97.8,504.7 98.3,504.4 98.8,504.1 99.3,503.8 99.9,503.5 
		100.4,503.2 100.9,502.9 101.4,502.6 101.9,502.2 102.4,501.9 103,501.6 103.5,501.2 104,500.9 104.5,500.6 105,500.2 105.5,499.9 
		106.1,499.5 106.6,499.1 107.1,498.8 107.6,498.4 108.1,498 108.6,497.7 109.2,497.3 109.7,496.9 110.2,496.5 110.7,496.2 
		111.2,495.8 111.7,495.4 112.2,495 112.8,494.7 113.3,494.3 113.8,493.9 114.3,493.5 114.8,493.1 115.3,492.8 115.9,492.4 
		116.4,492 116.9,491.6 117.4,491.2 117.9,490.9 118.4,490.5 118.9,490.1 119.5,489.8 120,489.4 120.5,489 121,488.7 121.5,488.3 
		122.1,488 122.6,487.6 123.1,487.2 123.6,486.9 124.1,486.5 124.6,486.2 125.1,485.9 125.7,485.5 126.2,485.2 126.7,484.9 
		127.2,484.6 127.7,484.3 128.2,484 128.8,483.6 129.3,483.3 129.8,483 130.3,482.8 130.8,482.5 131.3,482.2 131.9,481.9 
		132.4,481.6 132.9,481.4 133.4,481.1 133.9,480.8 134.4,480.6 134.9,480.3 135.5,480.1 136,479.9 136.5,479.6 137,479.4 
		137.5,479.2 138,479 138.6,478.8 139.1,478.6 139.6,478.4 140.1,478.2 140.6,478 141.1,477.8 141.6,477.6 142.2,477.5 142.7,477.3 
		143.2,477.1 143.7,477 144.2,476.8 144.8,476.7 145.3,476.5 145.8,476.4 146.3,476.3 146.8,476.1 147.3,476 147.8,475.9 
		148.4,475.8 148.9,475.7 149.4,475.6 149.9,475.5 150.4,475.4 150.9,475.3 151.4,475.2 152,475.1 152.5,475 153,475 153.5,474.9 
		154,474.8 154.6,474.8 155.1,474.7 155.6,474.6 156.1,474.6 156.6,474.5 157.1,474.5 157.6,474.5 158.2,474.4 158.7,474.4 
		159.2,474.4 159.7,474.3 160.2,474.3 160.7,474.3 161.2,474.2 161.8,474.2 162.3,474.2 162.8,474.2 163.3,474.2 163.8,474.2 
		164.4,474.2 164.9,474.2 165.4,474.2 165.9,474.2 166.4,474.2 166.9,474.2 167.4,474.2 168,474.2 168.5,474.2 169,474.2 
		169.5,474.2 170,474.2 170.5,474.3 171.1,474.3 171.6,474.3 172.1,474.4 172.6,474.4 173.1,474.4 173.6,474.4 174.1,474.5 
		174.7,474.5 175.2,474.5 175.7,474.6 176.2,474.6 176.7,474.6 177.2,474.7 177.8,474.7 178.3,474.8 178.8,474.8 179.3,474.8 
		179.8,474.9 180.3,474.9 180.9,474.9 181.4,475 181.9,475 182.4,475 182.9,475.1 183.4,475.1 183.9,475.1 184.5,475.1 185,475.2 
		185.5,475.2 186,475.2 186.5,475.2 187.1,475.2 187.6,475.2 188.1,475.2 188.6,475.2 189.1,475.2 189.6,475.2 190.1,475.2 
		190.7,475.1 191.2,475.1 191.7,475.1 192.2,475 192.7,475 193.2,474.9 193.8,474.8 194.3,474.8 194.8,474.7 195.3,474.6 
		195.8,474.5 196.3,474.4 196.9,474.3 197.4,474.1 197.9,474 198.4,473.9 198.9,473.7 199.4,473.6 199.9,473.4 200.5,473.2 201,473 
		201.5,472.8 202,472.6 202.5,472.4 203,472.2 203.6,471.9 204.1,471.7 204.6,471.4 205.1,471.2 205.6,470.9 206.1,470.6 
		206.6,470.3 207.2,470 207.7,469.7 208.2,469.4 208.7,469.1 209.2,468.7 209.8,468.4 210.3,468 210.8,467.7 211.3,467.3 211.8,467 
		212.3,466.6 212.8,466.2 213.4,465.9 213.9,465.5 214.4,465.1 214.9,464.8 215.4,464.4 215.9,464 216.4,463.6 217,463.3 
		217.5,462.9 218,462.5 218.5,462.1 219,461.8 219.6,461.4 220.1,461.1 220.6,460.7 221.1,460.4 221.6,460 222.1,459.7 222.6,459.4 
		223.2,459.1 223.7,458.8 224.2,458.5 224.7,458.3 225.2,458 225.7,457.8 226.2,457.5 226.8,457.3 227.3,457.1 227.8,456.9 
		228.3,456.7 228.8,456.6 229.4,456.4 229.9,456.3 230.4,456.2 230.9,456.1 231.4,456 231.9,456 232.4,455.9 233,455.9 233.5,455.9 
		234,455.9 234.5,456 235,456 235.5,456.1 236.1,456.2 236.6,456.3 237.1,456.4 237.6,456.5 238.1,456.7 238.6,456.9 239.1,457.1 
		239.7,457.3 240.2,457.5 240.7,457.8 241.2,458 241.7,458.3 242.2,458.6 242.8,458.9 243.3,459.2 243.8,459.5 244.3,459.9 
		244.8,460.2 245.3,460.6 245.9,461 246.4,461.4 246.9,461.7 247.4,462.1 247.9,462.6 248.4,463 248.9,463.4 249.5,463.8 250,464.3 
		250.5,464.7 251,465.1 251.5,465.6 252.1,466 252.6,466.5 253.1,467 253.6,467.4 254.1,467.9 254.6,468.3 255.1,468.8 255.7,469.2 
		256.2,469.7 256.7,470.1 257.2,470.6 257.7,471 258.2,471.5 258.8,471.9 259.3,472.3 259.8,472.8 260.3,473.2 260.8,473.6 
		261.3,474 261.9,474.4 262.4,474.8 262.9,475.2 263.4,475.6 263.9,476 264.4,476.3 265,476.7 265.5,477.1 266,477.4 266.5,477.8 
		267,478.1 267.5,478.5 268,478.8 268.6,479.1 269.1,479.4 269.6,479.7 270.1,480 270.6,480.3 271.1,480.6 271.6,480.9 272.2,481.2 
		272.7,481.5 273.2,481.7 273.7,482 274.2,482.2 274.8,482.5 275.3,482.7 275.8,483 276.3,483.2 276.8,483.4 277.3,483.6 
		277.8,483.9 278.4,484.1 278.9,484.3 279.4,484.5 279.9,484.7 280.4,484.9 280.9,485.1 281.5,485.3 282,485.5 282.5,485.7 
		283,485.9 283.5,486.1 284,486.3 284.5,486.5 285.1,486.6 285.6,486.8 286.1,487 286.6,487.2 287.1,487.4 287.6,487.5 288.2,487.7 
		288.7,487.9 289.2,488 289.7,488.2 290.2,488.4 290.7,488.5 291.3,488.7 291.8,488.9 292.3,489 292.8,489.2 293.3,489.4 
		293.8,489.5 294.4,489.7 294.9,489.9 295.4,490 295.9,490.2 296.4,490.4 296.9,490.5 297.5,490.7 298,490.9 298.5,491 299,491.2 
		299.5,491.4 300,491.6 300.5,491.7 301.1,491.9 301.6,492.1 302.1,492.2 302.6,492.4 303.1,492.6 303.6,492.8 304.1,493 
		304.7,493.1 305.2,493.3 305.7,493.5 306.2,493.7 306.7,493.9 307.2,494.1 307.8,494.3 308.3,494.5 308.8,494.7 309.3,494.9 
		309.8,495.1 310.3,495.3 310.9,495.5 311.4,495.7 311.9,495.9 312.4,496.1 312.9,496.3 313.4,496.5 314,496.8 314.5,497 315,497.2 
		315.5,497.5 316,497.7 316.5,497.9 317,498.2 317.6,498.4 318.1,498.7 318.6,498.9 319.1,499.2 319.6,499.4 320.1,499.7 320.7,500 
		321.2,500.2 321.7,500.5 322.2,500.8 322.7,501 323.2,501.3 323.8,501.6 324.3,501.9 324.8,502.1 325.3,502.4 325.8,502.7 
		326.3,503 326.9,503.3 327.4,503.6 327.9,503.9 328.4,504.2 328.9,504.5 329.4,504.8 330,505 	"/>
</g>
<line class="st5" x1="52" y1="530" x2="52" y2="321.6"/>
<text transform="matrix(1 0 0 1 26.8101 525.1797)" class="st6 st7 st8">0.0</text>
<text transform="matrix(1 0 0 1 26.8101 474.3496)" class="st6 st7 st8">0.2</text>
<text transform="matrix(1 0 0 1 26.8101 423.52)" class="st6 st7 st8">0.4</text>
<text transform="matrix(1 0 0 1 26.8101 372.6802)" class="st6 st7 st8">0.6</text>
<line class="st9" x1="48.1" y1="520.5" x2="52" y2="520.5"/>
<line class="st9" x1="48.1" y1="469.7" x2="52" y2="469.7"/>
<line class="st9" x1="48.1" y1="418.9" x2="52" y2="418.9"/>
<line class="st9" x1="48.1" y1="368" x2="52" y2="368"/>
<line class="st5" x1="52" y1="530" x2="352" y2="530"/>
<line class="st9" x1="72.1" y1="534" x2="72.1" y2="530"/>
<line class="st9" x1="153" y1="534" x2="153" y2="530"/>
<line class="st9" x1="233.9" y1="534" x2="233.9" y2="530"/>
<line class="st9" x1="314.7" y1="534" x2="314.7" y2="530"/>
<text transform="matrix(1 0 0 1 64.73 546.5)" class="st6 st7 st8">−4</text>
<text transform="matrix(1 0 0 1 145.5898 546.5)" class="st6 st7 st8">−2</text>
<text transform="matrix(1 0 0 1 230.2402 546.5)" class="st6 st7 st8">0</text>
<text transform="matrix(1 0 0 1 311.1001 546.5)" class="st6 st7 st8">2</text>
<text transform="matrix(1 0 0 1 64.8799 564.6602)" class="st7 st10">Change in CR score (geomean − max)</text>
<text transform="matrix(1 0 0 1 147.6299 309.6099)"><tspan x="0" y="0" class="st7 st11">EM_M</tspan><tspan x="54.9" y="0" class="st7 st11">A</tspan><tspan x="67" y="0" class="st7 st11">C</tspan><tspan x="80.7" y="0" class="st7 st11">R</tspan><tspan x="94.1" y="0" class="st7 st11">O</tspan></text>
<g>
	<defs>
		<rect id="SVGID_13_" x="360" y="288" width="360" height="288"/>
	</defs>
	<clipPath id="SVGID_14_">
		<use xlink:href="#SVGID_13_"  style="overflow:visible;"/>
	</clipPath>
	<rect x="360" y="288" class="st22" width="360" height="288"/>
	<rect x="360" y="288" class="st23" width="360" height="288"/>
</g>
<g>
	<defs>
		<rect id="SVGID_15_" x="412" y="321.6" width="300" height="208.4"/>
	</defs>
	<clipPath id="SVGID_16_">
		<use xlink:href="#SVGID_15_"  style="overflow:visible;"/>
	</clipPath>
	<rect x="412" y="321.6" class="st24" width="300" height="208.4"/>
	<rect x="425.7" y="473.7" class="st24" width="9.1" height="46.9"/>
	<rect x="425.7" y="473.7" class="st25" width="9.1" height="46.9"/>
	<rect x="434.8" y="518.5" class="st24" width="9.1" height="2"/>
	<rect x="434.8" y="518.5" class="st25" width="9.1" height="2"/>
	<rect x="443.9" y="518.5" class="st24" width="9.1" height="2"/>
	<rect x="443.9" y="518.5" class="st25" width="9.1" height="2"/>
	<path class="st24" d="M453,520.5h9.1H453z"/>
	<path class="st25" d="M453,520.5h9.1H453z"/>
	<path class="st24" d="M462,520.5h9.1H462z"/>
	<path class="st25" d="M462,520.5h9.1H462z"/>
	<rect x="471.1" y="514.4" class="st24" width="9.1" height="6.1"/>
	<rect x="471.1" y="514.4" class="st25" width="9.1" height="6.1"/>
	<path class="st24" d="M480.2,520.5h9.1H480.2z"/>
	<path class="st25" d="M480.2,520.5h9.1H480.2z"/>
	<path class="st24" d="M489.3,520.5h9.1H489.3z"/>
	<path class="st25" d="M489.3,520.5h9.1H489.3z"/>
	<rect x="498.4" y="518.5" class="st24" width="9.1" height="2"/>
	<rect x="498.4" y="518.5" class="st25" width="9.1" height="2"/>
	<path class="st24" d="M507.5,520.5h9.1H507.5z"/>
	<path class="st25" d="M507.5,520.5h9.1H507.5z"/>
	<rect x="516.6" y="518.5" class="st24" width="9.1" height="2"/>
	<rect x="516.6" y="518.5" class="st25" width="9.1" height="2"/>
	<rect x="525.7" y="518.5" class="st24" width="9.1" height="2"/>
	<rect x="525.7" y="518.5" class="st25" width="9.1" height="2"/>
	<path class="st24" d="M534.8,520.5h9.1H534.8z"/>
	<path class="st25" d="M534.8,520.5h9.1H534.8z"/>
	<rect x="543.9" y="518.5" class="st24" width="9.1" height="2"/>
	<rect x="543.9" y="518.5" class="st25" width="9.1" height="2"/>
	<rect x="553" y="508.3" class="st24" width="9.1" height="12.2"/>
	<rect x="553" y="508.3" class="st25" width="9.1" height="12.2"/>
	<rect x="562" y="502.2" class="st24" width="9.1" height="18.3"/>
	<rect x="562" y="502.2" class="st25" width="9.1" height="18.3"/>
	<rect x="571.1" y="512.4" class="st24" width="9.1" height="8.1"/>
	<rect x="571.1" y="512.4" class="st25" width="9.1" height="8.1"/>
	<rect x="580.2" y="506.3" class="st24" width="9.1" height="14.3"/>
	<rect x="580.2" y="506.3" class="st25" width="9.1" height="14.3"/>
	<rect x="589.3" y="498.1" class="st24" width="9.1" height="22.4"/>
	<rect x="589.3" y="498.1" class="st25" width="9.1" height="22.4"/>
	<rect x="598.4" y="504.2" class="st24" width="9.1" height="16.3"/>
	<rect x="598.4" y="504.2" class="st25" width="9.1" height="16.3"/>
	<rect x="607.5" y="516.4" class="st24" width="9.1" height="4.1"/>
	<rect x="607.5" y="516.4" class="st25" width="9.1" height="4.1"/>
	<rect x="616.6" y="514.4" class="st24" width="9.1" height="6.1"/>
	<rect x="616.6" y="514.4" class="st25" width="9.1" height="6.1"/>
	<rect x="625.7" y="514.4" class="st24" width="9.1" height="6.1"/>
	<rect x="625.7" y="514.4" class="st25" width="9.1" height="6.1"/>
	<rect x="634.8" y="331.1" class="st24" width="9.1" height="189.4"/>
	<rect x="634.8" y="331.1" class="st25" width="9.1" height="189.4"/>
	<path class="st24" d="M643.8,520.5h9.1H643.8z"/>
	<path class="st25" d="M643.8,520.5h9.1H643.8z"/>
	<rect x="652.9" y="518.5" class="st24" width="9.1" height="2"/>
	<rect x="652.9" y="518.5" class="st25" width="9.1" height="2"/>
	<rect x="662" y="516.4" class="st24" width="9.1" height="4.1"/>
	<rect x="662" y="516.4" class="st25" width="9.1" height="4.1"/>
	<rect x="671.1" y="516.4" class="st24" width="9.1" height="4.1"/>
	<rect x="671.1" y="516.4" class="st25" width="9.1" height="4.1"/>
	<rect x="680.2" y="514.4" class="st24" width="9.1" height="6.1"/>
	<rect x="680.2" y="514.4" class="st25" width="9.1" height="6.1"/>
	<rect x="689.3" y="514.4" class="st24" width="9.1" height="6.1"/>
	<rect x="689.3" y="514.4" class="st25" width="9.1" height="6.1"/>
	<polyline class="st26" points="428.3,509.3 428.8,509.2 429.3,509.2 429.9,509.2 430.4,509.2 430.9,509.3 431.4,509.3 431.9,509.4 
		432.4,509.4 433,509.5 433.5,509.6 434,509.7 434.5,509.8 435,509.9 435.5,510 436,510.1 436.6,510.2 437.1,510.4 437.6,510.5 
		438.1,510.7 438.6,510.9 439.1,511 439.6,511.2 440.2,511.4 440.7,511.5 441.2,511.7 441.7,511.9 442.2,512.1 442.8,512.3 
		443.3,512.5 443.8,512.7 444.3,512.9 444.8,513.1 445.3,513.3 445.8,513.5 446.4,513.7 446.9,513.9 447.4,514.1 447.9,514.3 
		448.4,514.5 448.9,514.7 449.5,514.9 450,515.1 450.5,515.2 451,515.4 451.5,515.6 452,515.8 452.5,515.9 453.1,516.1 453.6,516.2 
		454.1,516.4 454.6,516.5 455.1,516.7 455.6,516.8 456.2,517 456.7,517.1 457.2,517.2 457.7,517.3 458.2,517.4 458.7,517.5 
		459.3,517.6 459.8,517.7 460.3,517.8 460.8,517.9 461.3,518 461.8,518 462.4,518.1 462.9,518.2 463.4,518.2 463.9,518.3 
		464.4,518.3 464.9,518.4 465.5,518.4 466,518.5 466.5,518.5 467,518.5 467.5,518.6 468,518.6 468.5,518.6 469.1,518.6 469.6,518.7 
		470.1,518.7 470.6,518.7 471.1,518.7 471.6,518.7 472.1,518.8 472.7,518.8 473.2,518.8 473.7,518.8 474.2,518.8 474.7,518.8 
		475.2,518.8 475.8,518.8 476.3,518.8 476.8,518.8 477.3,518.8 477.8,518.8 478.3,518.8 478.9,518.8 479.4,518.8 479.9,518.9 
		480.4,518.9 480.9,518.9 481.4,518.9 482,518.9 482.5,518.9 483,518.9 483.5,518.9 484,518.9 484.5,518.9 485,518.9 485.6,519 
		486.1,519 486.6,519 487.1,519 487.6,519 488.1,519 488.7,519 489.2,519 489.7,519 490.2,519 490.7,519.1 491.2,519.1 491.8,519.1 
		492.3,519.1 492.8,519.1 493.3,519.1 493.8,519.1 494.3,519.1 494.9,519.1 495.4,519.2 495.9,519.2 496.4,519.2 496.9,519.2 
		497.4,519.2 498,519.2 498.5,519.2 499,519.2 499.5,519.2 500,519.2 500.5,519.2 501,519.2 501.6,519.2 502.1,519.2 502.6,519.2 
		503.1,519.2 503.6,519.2 504.1,519.2 504.6,519.2 505.2,519.2 505.7,519.2 506.2,519.2 506.7,519.2 507.2,519.2 507.8,519.2 
		508.3,519.2 508.8,519.2 509.3,519.2 509.8,519.2 510.3,519.2 510.9,519.2 511.4,519.2 511.9,519.1 512.4,519.1 512.9,519.1 
		513.4,519.1 513.9,519.1 514.5,519.1 515,519.1 515.5,519.1 516,519 516.5,519 517,519 517.5,519 518.1,519 518.6,519 519.1,519 
		519.6,518.9 520.1,518.9 520.7,518.9 521.2,518.9 521.7,518.9 522.2,518.8 522.7,518.8 523.2,518.8 523.7,518.8 524.3,518.7 
		524.8,518.7 525.3,518.7 525.8,518.6 526.3,518.6 526.8,518.5 527.3,518.5 527.9,518.5 528.4,518.4 528.9,518.4 529.4,518.3 
		529.9,518.3 530.5,518.2 531,518.2 531.5,518.1 532,518 532.5,518 533,517.9 533.5,517.8 534.1,517.7 534.6,517.7 535.1,517.6 
		535.6,517.5 536.1,517.4 536.6,517.3 537.2,517.2 537.7,517.1 538.2,517 538.7,516.9 539.2,516.8 539.7,516.7 540.2,516.5 
		540.8,516.4 541.3,516.3 541.8,516.2 542.3,516 542.8,515.9 543.3,515.8 543.9,515.6 544.4,515.5 544.9,515.3 545.4,515.2 
		545.9,515 546.4,514.9 547,514.7 547.5,514.5 548,514.4 548.5,514.2 549,514 549.5,513.9 550,513.7 550.6,513.5 551.1,513.4 
		551.6,513.2 552.1,513 552.6,512.9 553.2,512.7 553.7,512.5 554.2,512.4 554.7,512.2 555.2,512 555.7,511.9 556.2,511.7 
		556.8,511.5 557.3,511.4 557.8,511.2 558.3,511 558.8,510.9 559.3,510.7 559.8,510.6 560.4,510.4 560.9,510.3 561.4,510.1 
		561.9,510 562.4,509.9 563,509.7 563.5,509.6 564,509.5 564.5,509.3 565,509.2 565.5,509.1 566,508.9 566.6,508.8 567.1,508.7 
		567.6,508.6 568.1,508.5 568.6,508.4 569.1,508.3 569.7,508.2 570.2,508.1 570.7,508 571.2,507.9 571.7,507.8 572.2,507.7 
		572.8,507.6 573.3,507.5 573.8,507.5 574.3,507.4 574.8,507.3 575.3,507.2 575.8,507.1 576.4,507.1 576.9,507 577.4,506.9 
		577.9,506.9 578.4,506.8 578.9,506.8 579.5,506.7 580,506.6 580.5,506.6 581,506.5 581.5,506.5 582,506.4 582.5,506.4 583.1,506.3 
		583.6,506.3 584.1,506.2 584.6,506.2 585.1,506.2 585.7,506.1 586.2,506.1 586.7,506 587.2,506 587.7,506 588.2,506 588.7,505.9 
		589.3,505.9 589.8,505.9 590.3,505.9 590.8,505.8 591.3,505.8 591.8,505.8 592.3,505.8 592.9,505.8 593.4,505.8 593.9,505.7 
		594.4,505.7 594.9,505.7 595.5,505.7 596,505.6 596.5,505.6 597,505.6 597.5,505.6 598,505.5 598.5,505.5 599.1,505.5 599.6,505.4 
		600.1,505.4 600.6,505.3 601.1,505.2 601.6,505.1 602.2,505.1 602.7,505 603.2,504.9 603.7,504.8 604.2,504.6 604.7,504.5 
		605.2,504.4 605.8,504.2 606.3,504 606.8,503.8 607.3,503.6 607.8,503.4 608.3,503.2 608.9,502.9 609.4,502.6 609.9,502.3 
		610.4,502 610.9,501.7 611.4,501.4 612,501 612.5,500.6 613,500.2 613.5,499.8 614,499.3 614.5,498.8 615,498.4 615.6,497.9 
		616.1,497.3 616.6,496.8 617.1,496.2 617.6,495.6 618.2,495 618.7,494.4 619.2,493.8 619.7,493.2 620.2,492.5 620.7,491.9 
		621.2,491.2 621.8,490.5 622.3,489.8 622.8,489.1 623.3,488.4 623.8,487.7 624.3,487 624.9,486.3 625.4,485.6 625.9,484.9 
		626.4,484.2 626.9,483.5 627.4,482.9 628,482.2 628.5,481.5 629,480.9 629.5,480.3 630,479.7 630.5,479.2 631,478.6 631.6,478.1 
		632.1,477.6 632.6,477.2 633.1,476.7 633.6,476.3 634.1,476 634.7,475.6 635.2,475.4 635.7,475.1 636.2,474.9 636.7,474.7 
		637.2,474.6 637.8,474.5 638.3,474.5 638.8,474.5 639.3,474.5 639.8,474.6 640.3,474.7 640.8,474.9 641.4,475.1 641.9,475.3 
		642.4,475.6 642.9,475.9 643.4,476.3 643.9,476.7 644.5,477.1 645,477.6 645.5,478.1 646,478.7 646.5,479.2 647,479.8 647.5,480.5 
		648.1,481.1 648.6,481.8 649.1,482.5 649.6,483.2 650.1,484 650.7,484.7 651.2,485.5 651.7,486.3 652.2,487.1 652.7,487.9 
		653.2,488.7 653.7,489.5 654.3,490.3 654.8,491.2 655.3,492 655.8,492.8 656.3,493.6 656.8,494.4 657.4,495.2 657.9,496 
		658.4,496.8 658.9,497.6 659.4,498.4 659.9,499.1 660.5,499.9 661,500.6 661.5,501.3 662,502 662.5,502.6 663,503.3 663.5,503.9 
		664.1,504.5 664.6,505.1 665.1,505.7 665.6,506.3 666.1,506.8 666.6,507.3 667.2,507.8 667.7,508.3 668.2,508.7 668.7,509.2 
		669.2,509.6 669.7,510 670.2,510.4 670.8,510.7 671.3,511.1 671.8,511.4 672.3,511.7 672.8,512 673.3,512.3 673.9,512.6 
		674.4,512.8 674.9,513 675.4,513.3 675.9,513.5 676.4,513.7 677,513.9 677.5,514 678,514.2 678.5,514.4 679,514.5 679.5,514.7 
		680,514.8 680.6,514.9 681.1,515 681.6,515.2 682.1,515.3 682.6,515.4 683.2,515.5 683.7,515.5 684.2,515.6 684.7,515.7 
		685.2,515.8 685.7,515.9 686.2,516 686.8,516 687.3,516.1 687.8,516.2 688.3,516.3 688.8,516.3 689.3,516.4 689.9,516.5 
		690.4,516.6 690.9,516.6 691.4,516.7 691.9,516.8 	"/>
</g>
<line class="st5" x1="412" y1="530" x2="412" y2="321.6"/>
<text transform="matrix(1 0 0 1 386.8096 525.1797)" class="st6 st7 st8">0.0</text>
<text transform="matrix(1 0 0 1 386.8096 475.4297)" class="st6 st7 st8">0.3</text>
<text transform="matrix(1 0 0 1 386.8096 425.6802)" class="st6 st7 st8">0.6</text>
<text transform="matrix(1 0 0 1 386.8096 375.9302)" class="st6 st7 st8">0.9</text>
<line class="st9" x1="408.1" y1="520.5" x2="412" y2="520.5"/>
<line class="st9" x1="408.1" y1="470.8" x2="412" y2="470.8"/>
<line class="st9" x1="408.1" y1="421" x2="412" y2="421"/>
<line class="st9" x1="408.1" y1="371.3" x2="412" y2="371.3"/>
<line class="st5" x1="412" y1="530" x2="712" y2="530"/>
<line class="st9" x1="470.5" y1="534" x2="470.5" y2="530"/>
<line class="st9" x1="554.9" y1="534" x2="554.9" y2="530"/>
<line class="st9" x1="639.3" y1="534" x2="639.3" y2="530"/>
<text transform="matrix(1 0 0 1 463.0996 546.5)" class="st6 st7 st8">−8</text>
<text transform="matrix(1 0 0 1 547.5 546.5)" class="st6 st7 st8">−4</text>
<text transform="matrix(1 0 0 1 635.6904 546.5)" class="st6 st7 st8">0</text>
<text transform="matrix(1 0 0 1 424.8799 564.6602)" class="st7 st10">Change in CR score (geomean − max)</text>
<text transform="matrix(1 0 0 1 516.4004 309.6099)"><tspan x="0" y="0" class="st7 st11">EM_FR</tspan><tspan x="64.4" y="0" class="st7 st11">A</tspan><tspan x="76.5" y="0" class="st7 st11">G</tspan></text>
<g>
	<defs>
		<rect id="SVGID_17_" y="576" width="360" height="288"/>
	</defs>
	<clipPath id="SVGID_18_">
		<use xlink:href="#SVGID_17_"  style="overflow:visible;"/>
	</clipPath>
	<rect y="576" class="st27" width="360" height="288"/>
	<rect y="576" class="st28" width="360" height="288"/>
</g>
<g>
	<defs>
		<rect id="SVGID_19_" x="52" y="609.6" width="300" height="208.4"/>
	</defs>
	<clipPath id="SVGID_20_">
		<use xlink:href="#SVGID_19_"  style="overflow:visible;"/>
	</clipPath>
	<rect x="52" y="609.6" class="st29" width="300" height="208.4"/>
	<rect x="65.7" y="790.5" class="st29" width="9.1" height="18"/>
	<rect x="65.7" y="790.5" class="st30" width="9.1" height="18"/>
	<rect x="74.8" y="799.5" class="st29" width="9.1" height="9"/>
	<rect x="74.8" y="799.5" class="st30" width="9.1" height="9"/>
	<rect x="83.9" y="799.5" class="st29" width="9.1" height="9"/>
	<rect x="83.9" y="799.5" class="st30" width="9.1" height="9"/>
	<rect x="93" y="790.5" class="st29" width="9.1" height="18"/>
	<rect x="93" y="790.5" class="st30" width="9.1" height="18"/>
	<rect x="102.1" y="781.5" class="st29" width="9.1" height="27.1"/>
	<rect x="102.1" y="781.5" class="st30" width="9.1" height="27.1"/>
	<rect x="111.1" y="790.5" class="st29" width="9.1" height="18"/>
	<rect x="111.1" y="790.5" class="st30" width="9.1" height="18"/>
	<rect x="120.2" y="799.5" class="st29" width="9.1" height="9"/>
	<rect x="120.2" y="799.5" class="st30" width="9.1" height="9"/>
	<rect x="129.3" y="799.5" class="st29" width="9.1" height="9"/>
	<rect x="129.3" y="799.5" class="st30" width="9.1" height="9"/>
	<rect x="138.4" y="781.5" class="st29" width="9.1" height="27.1"/>
	<rect x="138.4" y="781.5" class="st30" width="9.1" height="27.1"/>
	<rect x="147.5" y="754.4" class="st29" width="9.1" height="54.1"/>
	<rect x="147.5" y="754.4" class="st30" width="9.1" height="54.1"/>
	<rect x="156.6" y="763.4" class="st29" width="9.1" height="45.1"/>
	<rect x="156.6" y="763.4" class="st30" width="9.1" height="45.1"/>
	<rect x="165.7" y="781.5" class="st29" width="9.1" height="27.1"/>
	<rect x="165.7" y="781.5" class="st30" width="9.1" height="27.1"/>
	<rect x="174.8" y="745.4" class="st29" width="9.1" height="63.1"/>
	<rect x="174.8" y="745.4" class="st30" width="9.1" height="63.1"/>
	<rect x="183.9" y="745.4" class="st29" width="9.1" height="63.1"/>
	<rect x="183.9" y="745.4" class="st30" width="9.1" height="63.1"/>
	<rect x="192.9" y="763.4" class="st29" width="9.1" height="45.1"/>
	<rect x="192.9" y="763.4" class="st30" width="9.1" height="45.1"/>
	<rect x="202" y="718.3" class="st29" width="9.1" height="90.2"/>
	<rect x="202" y="718.3" class="st30" width="9.1" height="90.2"/>
	<rect x="211.1" y="754.4" class="st29" width="9.1" height="54.1"/>
	<rect x="211.1" y="754.4" class="st30" width="9.1" height="54.1"/>
	<rect x="220.2" y="736.4" class="st29" width="9.1" height="72.2"/>
	<rect x="220.2" y="736.4" class="st30" width="9.1" height="72.2"/>
	<rect x="229.3" y="745.4" class="st29" width="9.1" height="63.1"/>
	<rect x="229.3" y="745.4" class="st30" width="9.1" height="63.1"/>
	<rect x="238.4" y="736.4" class="st29" width="9.1" height="72.2"/>
	<rect x="238.4" y="736.4" class="st30" width="9.1" height="72.2"/>
	<rect x="247.5" y="736.4" class="st29" width="9.1" height="72.2"/>
	<rect x="247.5" y="736.4" class="st30" width="9.1" height="72.2"/>
	<rect x="256.6" y="709.3" class="st29" width="9.1" height="99.2"/>
	<rect x="256.6" y="709.3" class="st30" width="9.1" height="99.2"/>
	<rect x="265.7" y="691.3" class="st29" width="9.1" height="117.3"/>
	<rect x="265.7" y="691.3" class="st30" width="9.1" height="117.3"/>
	<rect x="274.8" y="619.1" class="st29" width="9.1" height="189.4"/>
	<rect x="274.8" y="619.1" class="st30" width="9.1" height="189.4"/>
	<rect x="283.9" y="745.4" class="st29" width="9.1" height="63.1"/>
	<rect x="283.9" y="745.4" class="st30" width="9.1" height="63.1"/>
	<rect x="292.9" y="754.4" class="st29" width="9.1" height="54.1"/>
	<rect x="292.9" y="754.4" class="st30" width="9.1" height="54.1"/>
	<rect x="302" y="745.4" class="st29" width="9.1" height="63.1"/>
	<rect x="302" y="745.4" class="st30" width="9.1" height="63.1"/>
	<rect x="311.1" y="727.3" class="st29" width="9.1" height="81.2"/>
	<rect x="311.1" y="727.3" class="st30" width="9.1" height="81.2"/>
	<rect x="320.2" y="781.5" class="st29" width="9.1" height="27.1"/>
	<rect x="320.2" y="781.5" class="st30" width="9.1" height="27.1"/>
	<rect x="329.3" y="799.5" class="st29" width="9.1" height="9"/>
	<rect x="329.3" y="799.5" class="st30" width="9.1" height="9"/>
	<polyline class="st31" points="72.4,799.6 72.9,799.4 73.4,799.3 74,799.1 74.5,798.9 75,798.8 75.5,798.6 76,798.4 76.5,798.3 
		77.1,798.1 77.6,798 78.1,797.8 78.6,797.6 79.1,797.5 79.6,797.3 80.2,797.2 80.7,797 81.2,796.8 81.7,796.7 82.2,796.5 
		82.7,796.4 83.2,796.3 83.8,796.1 84.3,796 84.8,795.8 85.3,795.7 85.8,795.5 86.3,795.4 86.9,795.3 87.4,795.2 87.9,795 
		88.4,794.9 88.9,794.8 89.4,794.7 89.9,794.5 90.5,794.4 91,794.3 91.5,794.2 92,794.1 92.5,794 93.1,793.9 93.6,793.8 94.1,793.7 
		94.6,793.6 95.1,793.5 95.6,793.4 96.1,793.3 96.7,793.2 97.2,793.2 97.7,793.1 98.2,793 98.7,792.9 99.2,792.8 99.8,792.8 
		100.3,792.7 100.8,792.6 101.3,792.6 101.8,792.5 102.3,792.5 102.8,792.4 103.4,792.3 103.9,792.3 104.4,792.2 104.9,792.2 
		105.4,792.1 105.9,792 106.5,792 107,791.9 107.5,791.9 108,791.8 108.5,791.8 109,791.7 109.6,791.7 110.1,791.6 110.6,791.5 
		111.1,791.5 111.6,791.4 112.1,791.4 112.7,791.3 113.2,791.2 113.7,791.2 114.2,791.1 114.7,791 115.2,790.9 115.7,790.8 
		116.3,790.8 116.8,790.7 117.3,790.6 117.8,790.5 118.3,790.4 118.8,790.3 119.4,790.2 119.9,790 120.4,789.9 120.9,789.8 
		121.4,789.7 121.9,789.5 122.4,789.4 123,789.2 123.5,789.1 124,788.9 124.5,788.7 125,788.6 125.6,788.4 126.1,788.2 126.6,788 
		127.1,787.8 127.6,787.6 128.1,787.4 128.6,787.2 129.2,786.9 129.7,786.7 130.2,786.4 130.7,786.2 131.2,785.9 131.7,785.7 
		132.2,785.4 132.8,785.1 133.3,784.8 133.8,784.6 134.3,784.3 134.8,784 135.4,783.7 135.9,783.3 136.4,783 136.9,782.7 
		137.4,782.4 137.9,782 138.4,781.7 139,781.4 139.5,781 140,780.7 140.5,780.3 141,780 141.5,779.6 142.1,779.2 142.6,778.9 
		143.1,778.5 143.6,778.1 144.1,777.8 144.6,777.4 145.1,777 145.7,776.6 146.2,776.2 146.7,775.9 147.2,775.5 147.7,775.1 
		148.2,774.7 148.8,774.3 149.3,774 149.8,773.6 150.3,773.2 150.8,772.8 151.3,772.5 151.9,772.1 152.4,771.7 152.9,771.3 
		153.4,771 153.9,770.6 154.4,770.2 154.9,769.8 155.5,769.5 156,769.1 156.5,768.8 157,768.4 157.5,768 158.1,767.7 158.6,767.3 
		159.1,767 159.6,766.6 160.1,766.3 160.6,766 161.1,765.6 161.7,765.3 162.2,765 162.7,764.6 163.2,764.3 163.7,764 164.2,763.6 
		164.8,763.3 165.3,763 165.8,762.7 166.3,762.4 166.8,762.1 167.3,761.8 167.9,761.5 168.4,761.2 168.9,760.9 169.4,760.6 
		169.9,760.3 170.4,760 170.9,759.7 171.5,759.4 172,759.1 172.5,758.8 173,758.5 173.5,758.2 174,758 174.6,757.7 175.1,757.4 
		175.6,757.2 176.1,756.9 176.6,756.6 177.1,756.3 177.6,756.1 178.2,755.8 178.7,755.5 179.2,755.3 179.7,755 180.2,754.8 
		180.8,754.5 181.3,754.2 181.8,754 182.3,753.8 182.8,753.5 183.3,753.2 183.8,753 184.4,752.8 184.9,752.5 185.4,752.3 185.9,752 
		186.4,751.8 186.9,751.6 187.4,751.3 188,751.1 188.5,750.9 189,750.7 189.5,750.5 190,750.2 190.6,750 191.1,749.8 191.6,749.6 
		192.1,749.4 192.6,749.2 193.1,749 193.6,748.8 194.2,748.6 194.7,748.4 195.2,748.2 195.7,748 196.2,747.8 196.7,747.6 
		197.2,747.5 197.8,747.3 198.3,747.1 198.8,746.9 199.3,746.8 199.8,746.6 200.4,746.5 200.9,746.3 201.4,746.1 201.9,746 
		202.4,745.8 202.9,745.7 203.4,745.5 204,745.4 204.5,745.2 205,745.1 205.5,745 206,744.8 206.5,744.7 207.1,744.6 207.6,744.5 
		208.1,744.3 208.6,744.2 209.1,744.1 209.6,744 210.1,743.8 210.7,743.7 211.2,743.6 211.7,743.5 212.2,743.4 212.7,743.2 
		213.2,743.1 213.8,743 214.3,742.9 214.8,742.8 215.3,742.6 215.8,742.5 216.3,742.4 216.9,742.2 217.4,742.1 217.9,742 
		218.4,741.8 218.9,741.7 219.4,741.6 219.9,741.4 220.5,741.3 221,741.1 221.5,741 222,740.8 222.5,740.7 223.1,740.5 223.6,740.3 
		224.1,740.1 224.6,739.9 225.1,739.8 225.6,739.5 226.1,739.3 226.7,739.1 227.2,738.9 227.7,738.7 228.2,738.5 228.7,738.2 
		229.2,738 229.8,737.7 230.3,737.5 230.8,737.2 231.3,736.9 231.8,736.6 232.3,736.3 232.9,736 233.4,735.7 233.9,735.4 
		234.4,735.1 234.9,734.8 235.4,734.4 235.9,734.1 236.5,733.7 237,733.3 237.5,733 238,732.6 238.5,732.2 239,731.8 239.6,731.4 
		240.1,731 240.6,730.6 241.1,730.1 241.6,729.7 242.1,729.2 242.6,728.8 243.2,728.3 243.7,727.9 244.2,727.4 244.7,726.9 
		245.2,726.5 245.8,726 246.3,725.5 246.8,725 247.3,724.5 247.8,724 248.3,723.5 248.8,723 249.4,722.5 249.9,722 250.4,721.5 
		250.9,720.9 251.4,720.4 251.9,719.9 252.4,719.4 253,718.9 253.5,718.4 254,717.9 254.5,717.4 255,716.9 255.6,716.4 256.1,715.9 
		256.6,715.4 257.1,715 257.6,714.5 258.1,714 258.6,713.6 259.2,713.2 259.7,712.7 260.2,712.3 260.7,711.9 261.2,711.5 
		261.7,711.1 262.3,710.8 262.8,710.4 263.3,710.1 263.8,709.7 264.3,709.4 264.8,709.1 265.4,708.8 265.9,708.6 266.4,708.3 
		266.9,708.1 267.4,707.9 267.9,707.7 268.5,707.5 269,707.4 269.5,707.3 270,707.2 270.5,707.1 271,707 271.5,706.9 272.1,706.9 
		272.6,706.9 273.1,706.9 273.6,707 274.1,707 274.6,707.1 275.1,707.2 275.7,707.3 276.2,707.5 276.7,707.7 277.2,707.8 
		277.7,708.1 278.2,708.3 278.8,708.5 279.3,708.8 279.8,709.1 280.3,709.4 280.8,709.8 281.3,710.1 281.9,710.5 282.4,710.9 
		282.9,711.3 283.4,711.8 283.9,712.2 284.4,712.7 285,713.2 285.5,713.7 286,714.2 286.5,714.7 287,715.3 287.5,715.9 288,716.5 
		288.6,717 289.1,717.7 289.6,718.3 290.1,718.9 290.6,719.6 291.1,720.2 291.7,720.9 292.2,721.6 292.7,722.3 293.2,723 
		293.7,723.7 294.2,724.4 294.8,725.2 295.3,725.9 295.8,726.6 296.3,727.4 296.8,728.2 297.3,728.9 297.9,729.7 298.4,730.5 
		298.9,731.3 299.4,732.1 299.9,732.9 300.4,733.7 301,734.5 301.5,735.3 302,736.1 302.5,736.9 303,737.8 303.5,738.6 304,739.4 
		304.6,740.2 305.1,741.1 305.6,741.9 306.1,742.8 306.6,743.6 307.1,744.4 307.6,745.3 308.2,746.1 308.7,747 309.2,747.8 
		309.7,748.7 310.2,749.5 310.8,750.4 311.3,751.3 311.8,752.1 312.3,753 312.8,753.8 313.3,754.7 313.8,755.5 314.4,756.4 
		314.9,757.2 315.4,758.1 315.9,759 316.4,759.8 316.9,760.7 317.5,761.5 318,762.4 318.5,763.2 319,764.1 319.5,764.9 320,765.7 
		320.5,766.6 321.1,767.4 321.6,768.2 322.1,769.1 322.6,769.9 323.1,770.7 323.6,771.5 324.2,772.3 324.7,773.1 325.2,773.9 
		325.7,774.7 326.2,775.5 326.7,776.3 327.3,777 327.8,777.8 328.3,778.6 328.8,779.3 329.3,780 329.8,780.8 330.4,781.5 
		330.9,782.2 331.4,782.9 331.9,783.6 332.4,784.3 332.9,785 333.5,785.7 334,786.3 334.5,787 335,787.6 335.5,788.3 336,788.9 	"/>
</g>
<line class="st5" x1="52" y1="818" x2="52" y2="609.6"/>
<text transform="matrix(1 0 0 1 26.8101 813.1797)" class="st6 st7 st8">0.0</text>
<text transform="matrix(1 0 0 1 26.8101 755.8799)" class="st6 st7 st8">0.1</text>
<text transform="matrix(1 0 0 1 26.8101 698.5801)" class="st6 st7 st8">0.2</text>
<text transform="matrix(1 0 0 1 26.8101 641.2803)" class="st6 st7 st8">0.3</text>
<line class="st9" x1="48.1" y1="808.5" x2="52" y2="808.5"/>
<line class="st9" x1="48.1" y1="751.2" x2="52" y2="751.2"/>
<line class="st9" x1="48.1" y1="693.9" x2="52" y2="693.9"/>
<line class="st9" x1="48.1" y1="636.6" x2="52" y2="636.6"/>
<line class="st5" x1="52" y1="818" x2="352" y2="818"/>
<line class="st9" x1="55.2" y1="822" x2="55.2" y2="818"/>
<line class="st9" x1="129.9" y1="822" x2="129.9" y2="818"/>
<line class="st9" x1="204.6" y1="822" x2="204.6" y2="818"/>
<line class="st9" x1="279.3" y1="822" x2="279.3" y2="818"/>
<text transform="matrix(1 0 0 1 47.8101 834.5)" class="st6 st7 st8">−9</text>
<text transform="matrix(1 0 0 1 122.5098 834.5)" class="st6 st7 st8">−6</text>
<text transform="matrix(1 0 0 1 197.2002 834.5)" class="st6 st7 st8">−3</text>
<text transform="matrix(1 0 0 1 275.6899 834.5)" class="st6 st7 st8">0</text>
<text transform="matrix(1 0 0 1 64.8799 852.6602)" class="st7 st10">Change in CR score (geomean − max)</text>
<text transform="matrix(1 0 0 1 151.8901 597.6104)" class="st7 st11">EM_SOCIO</text>
</svg>
