<svg viewBox="0 0 36 25" focusable="false" class="chakra-icon chakra-icon css-1jb3ylh"><path fill="currentColor" d="M28.68 7.89c3.34 1.58 5.53 4.25 5.53 7.25a6.92 6.92 0 01-2 4.76v.25a4.28 4.28 0 003.32 3.26 4.18 4.18 0 01-2.06 1.13 4.29 4.29 0 01-4.72-2.19 16.76 16.76 0 01-7.24 1.57c-4.9 0-9.15-1.92-11.27-4.72 1.25.24 2.518.364 3.79.37 8.25 0 14.71-4.74 14.71-10.79a8.67 8.67 0 00-.06-.89zM14.12 0l-4.4 7h4.51l-4.12 6.44H14l-2.49 3.94A15.89 15.89 0 016.78 16a4.29 4.29 0 01-4.72 2.19A4.34 4.34 0 010 17.06a4.28 4.28 0 003.32-3.26v-.25a7 7 0 01-2-4.77C1.32 3.93 7 0 14 0zm2 .13c6.02.69 10.62 4.3 10.62 8.68 0 4.85-5.71 8.79-12.71 8.79h-.27l3.88-6.11h-3.89L17.87 5h-4.52L16.33.26z"></path></svg>